<?xml version="1.0" encoding="utf-8"?>
<!-- Generator: Adobe Illustrator 25.4.0, SVG Export Plug-In . SVG Version: 6.00 Build 0)  -->
<svg version="1.1" id="Layer_1" xmlns="http://www.w3.org/2000/svg" xmlns:xlink="http://www.w3.org/1999/xlink" x="0px" y="0px"
	 viewBox="0 0 226.7 140.8" style="enable-background:new 0 0 226.7 140.8;" xml:space="preserve">
<style type="text/css">
	.st0{clip-path:url(#SVGID_00000118380129173275963890000016347692433357713837_);}
	.st1{fill:url(#SVGID_00000078005139415445073200000005630328798003996563_);}
	.st2{fill:url(#SVGID_00000074443514132698048570000010465745938275335865_);}
	.st3{fill:#513821;}
	.st4{fill:#CC5333;}
	.st5{fill:#B45309;}
	.st6{fill:url(#SVGID_00000006677976883916320290000005901085186802281360_);}
	.st7{fill:url(#SVGID_00000141430691193972482650000003751572790088356280_);}
	.st8{fill:#23074D;}
	.st9{fill:none;stroke:#23074D;stroke-width:15;stroke-miterlimit:10;}
	.st10{fill:url(#SVGID_00000103236292388642963800000014081940764463746962_);}
	.st11{fill:url(#SVGID_00000038389948899532884780000016140028013180169377_);}
	.st12{fill:url(#SVGID_00000149371596031584257440000016328487964845342138_);}
	.st13{fill:url(#SVGID_00000119097261292406140600000002947606646972251302_);}
	.st14{fill:url(#SVGID_00000018921384753476632760000015994497938676136328_);}
	.st15{fill:url(#SVGID_00000173842118169652736230000007483899269620858257_);}
	.st16{fill:url(#SVGID_00000155127861633129750070000010225128731192624515_);}
	.st17{fill:url(#SVGID_00000109028631976436916520000001048566401663180678_);}
	.st18{fill:#FF7F00;}
	.st19{fill:#8B8DEF;}
	.st20{fill:url(#SVGID_00000167389998162714028080000017169088139118059961_);}
	.st21{fill:url(#SVGID_00000174584779915732881830000000036141528298722221_);}
	.st22{fill:url(#SVGID_00000153705263352424682750000015734037864158661552_);}
	.st23{fill:url(#SVGID_00000119100854774865953540000000702642452665226126_);}
	.st24{fill:url(#SVGID_00000112603105012543143460000008704921912654841762_);}
	.st25{fill:url(#SVGID_00000129904521446450701820000012461295091239010464_);}
</style>
<g>
	<g>
		<defs>
			<rect id="SVGID_1_" y="-7.8" width="312" height="156"/>
		</defs>
		<clipPath id="SVGID_00000061469837840008345620000005067951355455013054_">
			<use xlink:href="#SVGID_1_"  style="overflow:visible;"/>
		</clipPath>
		<g style="clip-path:url(#SVGID_00000061469837840008345620000005067951355455013054_);">
			
				<linearGradient id="SVGID_00000123435643218985166920000008858340673203339433_" gradientUnits="userSpaceOnUse" x1="30.8392" y1="747.7508" x2="22.7975" y2="764.2298" gradientTransform="matrix(1 0 0 1 0 -649.6016)">
				<stop  offset="0" style="stop-color:#FFFFFF"/>
				<stop  offset="0.986" style="stop-color:#D1D1E0"/>
			</linearGradient>
			<path style="fill:url(#SVGID_00000123435643218985166920000008858340673203339433_);" d="M6.2,112.9c0,0-1.9-1.2-3.7-2.1
				c-1.5-0.9-2.4-2.6-2.4-5.1c0-5.4,4.4-12.3,9.8-15.4L67.5,57c3.1-1.8,5.9-2,7.7-0.7c1.2,0.9,3.6,2,3.6,2L6.2,112.9z"/>
			
				<linearGradient id="SVGID_00000142895577685693341480000015071159061436877208_" gradientUnits="userSpaceOnUse" x1="12.238" y1="855.4771" x2="67.6791" y2="634.3927" gradientTransform="matrix(1 0 0 1 0 -649.6016)">
				<stop  offset="0" style="stop-color:#FFFFFF"/>
				<stop  offset="0.986" style="stop-color:#D1D1E0"/>
			</linearGradient>
			<path style="fill:url(#SVGID_00000142895577685693341480000015071159061436877208_);" d="M71.2,78.7L13.6,112
				c-5.4,3.1-9.8,1.2-9.8-4.1c0-5.4,4.4-12.3,9.8-15.4l57.6-33.3c5.4-3.1,9.8-1.2,9.8,4.1S76.7,75.6,71.2,78.7z"/>
			<path class="st3" d="M96.6,10c-0.6-9.3-8.4-12.7-18-7.7C67.3,8,57.9,22.4,57.9,33.5c0,2.1,0.3,4,0.9,5.5c2.3,5.5,1,13.8-3.3,22
				c-3.6,6.9-5.6,14.3-5.2,20.7C51.2,94.9,62.4,99.4,76,92.1c15.4-8.3,28-27.8,28-43.1C104.2,37.4,97,17.5,96.6,10z"/>
			<path class="st4" d="M106.5,50.6c0,14.2-11,32.2-25,41.3c-0.8,0.5-1.6,0.9-2.3,1.4c-0.2,0.2-0.5,0.2-0.7,0.4
				c-8.7,4.7-16.3,4.6-21,0.5c-2.7-2.3-4.4-6-4.8-10.9c-0.4-6.4,1.6-13.7,5.2-20.7c4.3-8.2,5.5-16.5,3.3-22
				c-0.6-1.6-0.9-3.4-0.9-5.5C60.4,24,69.8,9.7,81,3.9c4.8-2.5,9.2-2.8,12.5-1.4c3.1,1.4,5.1,4.5,5.5,9.1
				C99.4,19.1,106.5,39,106.5,50.6z"/>
			<path class="st5" d="M81.7,42.9v48.5c-0.8,0.5-1.6,1-2.3,1.4V42.9H81.7z"/>
			
				<linearGradient id="SVGID_00000161633051774632783350000012345877602348802237_" gradientUnits="userSpaceOnUse" x1="19.0297" y1="672.0526" x2="42.2319" y2="692.3545" gradientTransform="matrix(1 0 0 1 0 -649.6016)">
				<stop  offset="0" style="stop-color:#FFFFFF"/>
				<stop  offset="0.986" style="stop-color:#D1D1E0"/>
			</linearGradient>
			<path style="fill:url(#SVGID_00000161633051774632783350000012345877602348802237_);" d="M86,24.9L15.6,74.4l-4-2.3
				c-1.4-2.4-2.2-5.5-2.2-9.3C9.4,48,21.5,29,36.3,20.4c8.3-4.8,15.7-5.3,20.6-2.3c1.1,0.7,3.7,2.2,3.7,2.2L62,22l0.1-0.1
				c3.5-2,6.6-2.3,8.7-0.9c1.1,0.7,3.1,1.8,3.7,2.2l0.2,0.1h0.1c2.9-1.6,5.5-1.6,7.3-0.5C83.5,23.6,86,24.9,86,24.9z"/>
			
				<linearGradient id="SVGID_00000005253204374954031120000010217778912985044407_" gradientUnits="userSpaceOnUse" x1="48.9122" y1="665.3038" x2="57.8107" y2="812.4269" gradientTransform="matrix(1 0 0 1 0 -649.6016)">
				<stop  offset="0" style="stop-color:#FFFFFF"/>
				<stop  offset="0.986" style="stop-color:#D1D1E0"/>
			</linearGradient>
			<path style="fill:url(#SVGID_00000005253204374954031120000010217778912985044407_);" d="M88.3,30c0,0.8-0.1,1.6-0.2,2.5
				L15.6,74.3c-1.4-2.4-2.2-5.5-2.2-9.3c0-14.8,12.1-33.9,26.9-42.4c11.2-6.4,20.7-5.1,24.8,2.1c0.3-0.2,0.6-0.4,0.9-0.6
				c5.3-3,9.8-2,11,2.3c0.4-0.2,0.7-0.5,1.1-0.7C83.8,22.5,88.3,24.4,88.3,30z"/>
			<path class="st8" d="M118.7,40.1L72.4,66.8H74L118.7,41l44.7,25.8h1.6L118.7,40.1z"/>
			<path class="st9" d="M185.8,58.4c-0.2,2.6-1.1,4.4-2.5,5.3c-1.8,1.2-4.4,0.9-7.2-0.9c-5.1-3.3-9-10.5-8.7-16.2s4.6-7.6,9.7-4.4
				C182.2,45.4,186.1,52.7,185.8,58.4z"/>
			
				<linearGradient id="SVGID_00000008839276252262078710000000196834318807801991_" gradientUnits="userSpaceOnUse" x1="162.163" y1="760.3325" x2="162.034" y2="762.3655" gradientTransform="matrix(1 0 0 1 0 -649.6016)">
				<stop  offset="0" style="stop-color:#2F33F5"/>
				<stop  offset="1" style="stop-color:#2F33CB"/>
			</linearGradient>
			<path style="fill:url(#SVGID_00000008839276252262078710000000196834318807801991_);" d="M162,111.6l-1.6,0.9v1.6l1.6,0.9
				l1.6-0.9v-1.6L162,111.6z"/>
			
				<linearGradient id="SVGID_00000034080899943989218640000014526620522936448176_" gradientUnits="userSpaceOnUse" x1="160.446" y1="717.3016" x2="163.566" y2="717.3016" gradientTransform="matrix(1 0 0 1 0 -649.6016)">
				<stop  offset="0" style="stop-color:#2F33F5"/>
				<stop  offset="1" style="stop-color:#2F33CB"/>
			</linearGradient>
			<path style="fill:url(#SVGID_00000034080899943989218640000014526620522936448176_);" d="M162,66l-1.6,0.9v1.6l1.6,0.9l1.6-0.9
				v-1.6L162,66z"/>
			
				<linearGradient id="SVGID_00000079457527138704749510000007308488878477102999_" gradientUnits="userSpaceOnUse" x1="108.7138" y1="757.9304" x2="92.7623" y2="782.5825" gradientTransform="matrix(1 0 0 1 0 -649.6016)">
				<stop  offset="0" style="stop-color:#FFFFFF"/>
				<stop  offset="0.986" style="stop-color:#D1D1E0"/>
			</linearGradient>
			<path style="fill:url(#SVGID_00000079457527138704749510000007308488878477102999_);" d="M76.5,113.6l37.8,21.8l9-5.1l-37.8-21.8
				L76.5,113.6z"/>
			<path class="st8" d="M163.2,114.3L117,87.6L71.4,114l-0.4-0.6l46-26.7l46.6,26.8L163.2,114.3z"/>
			<path class="st5" d="M92,97.7c0,0.2-0.1,0.3-0.2,0.4l-10.6,6.2c-0.8,0.5-1.9-0.2-1.9-1.1V92.9c0.8-0.5,1.6-0.9,2.3-1.4v10.1
				l9-5.2c0.2-0.1,0.3,0,0.5,0.1c0.2,0.2,0.5,0.4,0.6,0.6C91.9,97.3,92,97.5,92,97.7z"/>
			
				<linearGradient id="SVGID_00000120517968180891269070000007878977454491271334_" gradientUnits="userSpaceOnUse" x1="125.622" y1="746.1849" x2="116.526" y2="781.4819" gradientTransform="matrix(1 0 0 1 0 -649.6016)">
				<stop  offset="0" style="stop-color:#FFFFFF"/>
				<stop  offset="0.986" style="stop-color:#D1D1E0"/>
			</linearGradient>
			<path style="fill:url(#SVGID_00000120517968180891269070000007878977454491271334_);" d="M123.2,125.2l-8.9,5.1v-9l8.9-5.1V125.2
				z"/>
			
				<linearGradient id="SVGID_00000039128381774962396740000003837601709392651190_" gradientUnits="userSpaceOnUse" x1="89.8345" y1="778.0564" x2="102.0943" y2="748.1974" gradientTransform="matrix(1 0 0 1 0 -649.6016)">
				<stop  offset="0" style="stop-color:#FFFFFF"/>
				<stop  offset="0.986" style="stop-color:#D1D1E0"/>
			</linearGradient>
			<path style="fill:url(#SVGID_00000039128381774962396740000003837601709392651190_);" d="M114.3,130.3l-37.8-21.8v-9l37.8,21.8
				V130.3z"/>
			
				<linearGradient id="SVGID_00000177475636125963306860000016299343809014079898_" gradientUnits="userSpaceOnUse" x1="99.8411" y1="751.9579" x2="100.533" y2="816.5219" gradientTransform="matrix(1 0 0 1 0 -649.6016)">
				<stop  offset="0" style="stop-color:#FFFFFF"/>
				<stop  offset="0.986" style="stop-color:#D1D1E0"/>
			</linearGradient>
			<path style="fill:url(#SVGID_00000177475636125963306860000016299343809014079898_);" d="M76.5,99.5l37.8,21.8l9-5.1L85.5,94.4
				L76.5,99.5z"/>
			
				<radialGradient id="SVGID_00000102519392978201531170000012621725313291695025_" cx="-973.7705" cy="-127.4298" r="1" gradientTransform="matrix(46.8709 0 0 46.8709 45766.5508 6021.749)" gradientUnits="userSpaceOnUse">
				<stop  offset="0" style="stop-color:#FFFFFF"/>
				<stop  offset="0.1926" style="stop-color:#FFFFFF"/>
				<stop  offset="0.7176" style="stop-color:#D1D1E0"/>
				<stop  offset="0.8999" style="stop-color:#D9D9E5"/>
				<stop  offset="0.9993" style="stop-color:#EBEBF1"/>
			</radialGradient>
			<path style="fill:url(#SVGID_00000102519392978201531170000012621725313291695025_);" d="M118.2,96.3c19,0,34.3-15.4,34.3-34.3
				c0-19-15.4-34.3-34.3-34.3c-19,0-34.3,15.4-34.3,34.3C83.8,81,99.2,96.3,118.2,96.3z"/>
			<path class="st8" d="M117.2,140.8L71,114l0.4-0.6l45.8,26.5V140.8z"/>
			
				<radialGradient id="SVGID_00000169555232950097561170000011056335475307099810_" cx="-908.4615" cy="-75.8389" r="1" gradientTransform="matrix(11.4979 0 0 11.4979 10592.0117 887.9309)" gradientUnits="userSpaceOnUse">
				<stop  offset="0" style="stop-color:#FFFFFF"/>
				<stop  offset="0.1926" style="stop-color:#FFFFFF"/>
				<stop  offset="0.7176" style="stop-color:#D1D1E0"/>
				<stop  offset="0.8999" style="stop-color:#D9D9E5"/>
				<stop  offset="0.9993" style="stop-color:#EBEBF1"/>
			</radialGradient>
			<path style="fill:url(#SVGID_00000169555232950097561170000011056335475307099810_);" d="M144.9,27.5c4.7,0,8.4-3.8,8.4-8.4
				c0-4.7-3.8-8.4-8.4-8.4c-4.7,0-8.4,3.8-8.4,8.4C136.5,23.8,140.3,27.5,144.9,27.5z"/>
			<path class="st18" d="M118.7,138.4l-1.6,0.9l-1.6-0.9l1.6-0.9L118.7,138.4z"/>
			<path class="st18" d="M73.9,112.3l-1.6,0.9l-1.6-0.9l1.6-0.9L73.9,112.3z"/>
			<path class="st19" d="M81.7,42.9c0,0.2-0.1,0.4-0.3,0.5c-0.5,0.2-1.2,0.2-1.6,0c-0.2-0.2-0.3-0.3-0.3-0.5s0.1-0.4,0.3-0.5
				s0.5-0.2,0.9-0.2c0.3,0,0.6,0.1,0.8,0.2C81.6,42.6,81.7,42.7,81.7,42.9z"/>
			<path class="st8" d="M163.6,114l-0.8,0.5V67.4l0.8-0.5v46.6V114z"/>
			<path class="st8" d="M117.5,92.7h-0.8v47.6h0.8V92.7z"/>
			<path class="st8" d="M117.2,140.8v-0.9l45.9-26.5l0.4,0.7L117.2,140.8z"/>
			<path class="st8" d="M71.5,67.4v47l-0.8-0.4V67L71.5,67.4z"/>
			<path class="st18" d="M162,67.9l-1.6-0.9v1.6l1.6,0.9V67.9z"/>
			<path class="st18" d="M163.6,68.5l-1.6,0.9v-1.6l1.6-0.9V68.5z"/>
			
				<linearGradient id="SVGID_00000123438482850555363210000015794890685377080480_" gradientUnits="userSpaceOnUse" x1="162.2859" y1="702.2327" x2="179.292" y2="738.0248" gradientTransform="matrix(1 0 0 1 0 -649.6016)">
				<stop  offset="0" style="stop-color:#FFFFFF"/>
				<stop  offset="0.986" style="stop-color:#D1D1E0"/>
			</linearGradient>
			<path style="fill:url(#SVGID_00000123438482850555363210000015794890685377080480_);" d="M222.4,61.5c0,0-2.1-1.2-3.3-1.9
				c-3-1.8-7.6-1.4-12.7,1.5c-1.2,0.7-2.3,1.4-3.4,2.3c-0.2-0.5-0.5-1.8-0.5-1.8s-2.3-1.3-3-1.8c-4.5-2.8-11.3-2.3-18.9,2
				c-11,6.3-20.3,19-23.4,30.7c-9.6,5.5-17.5,17.2-18.9,27.3l3.6,2.1L222.4,61.5z"/>
			
				<linearGradient id="SVGID_00000085248685779202683860000003060502752314747270_" gradientUnits="userSpaceOnUse" x1="203.6359" y1="680.9318" x2="158.1539" y2="834.3827" gradientTransform="matrix(1 0 0 1 0 -649.6016)">
				<stop  offset="0" style="stop-color:#FFFFFF"/>
				<stop  offset="0.986" style="stop-color:#D1D1E0"/>
			</linearGradient>
			<path style="fill:url(#SVGID_00000085248685779202683860000003060502752314747270_);" d="M226.7,70.3c0-9.3-7.5-12.4-16.8-7.1
				c-1.2,0.7-2.3,1.4-3.4,2.3c-3.9-6.2-12.4-7.2-22.4-1.5c-11,6.3-20.3,19-23.4,30.7c-9.6,5.5-17.6,17.2-18.9,27.3l37.8-21.8
				L207,84.4L226.6,73C226.7,72.1,226.7,71.2,226.7,70.3z"/>
			
				<linearGradient id="SVGID_00000150800429055317650560000006445189775945886118_" gradientUnits="userSpaceOnUse" x1="162.8753" y1="761.6583" x2="157.7343" y2="764.2623" gradientTransform="matrix(1 0 0 1 0 -649.6016)">
				<stop  offset="0" style="stop-color:#2F33F5"/>
				<stop  offset="1" style="stop-color:#2F33CB"/>
			</linearGradient>
			<path style="fill:url(#SVGID_00000150800429055317650560000006445189775945886118_);" d="M163.6,112.5l-1.6,0.9l-1.6-0.9l1.6-0.9
				L163.6,112.5z"/>
			
				<linearGradient id="SVGID_00000140727543054157160070000002772515425798660520_" gradientUnits="userSpaceOnUse" x1="161.3309" y1="761.2833" x2="161.2328" y2="762.8323" gradientTransform="matrix(1 0 0 1 0 -649.6016)">
				<stop  offset="0" style="stop-color:#2F33F5"/>
				<stop  offset="1" style="stop-color:#2F33CB"/>
			</linearGradient>
			<path style="fill:url(#SVGID_00000140727543054157160070000002772515425798660520_);" d="M162,113.4l-1.6-0.9v1.6l1.6,0.9V113.4z
				"/>
			
				<linearGradient id="SVGID_00000036251442525013615750000003504850868712386746_" gradientUnits="userSpaceOnUse" x1="162.9225" y1="761.3846" x2="162.8235" y2="762.9336" gradientTransform="matrix(1 0 0 1 0 -649.6016)">
				<stop  offset="0" style="stop-color:#2F33F5"/>
				<stop  offset="1" style="stop-color:#2F33CB"/>
			</linearGradient>
			<path style="fill:url(#SVGID_00000036251442525013615750000003504850868712386746_);" d="M163.6,114l-1.6,1v-1.6l1.6-0.9V114z"/>
			<path class="st18" d="M163.6,112.5l-1.6,0.9l-1.6-0.9l1.6-0.9L163.6,112.5z"/>
			<path class="st18" d="M162,113.4l-1.6-0.9v1.6l1.6,0.9V113.4z"/>
			<path class="st18" d="M163.6,114l-1.6,1v-1.6l1.6-0.9V114z"/>
			<path class="st18" d="M118.7,139.9l-1.6,0.9v-1.6l1.6-0.9V139.9z"/>
			<path class="st18" d="M117.2,139.2l-1.6-0.9v1.6l1.6,0.9V139.2z"/>
			<path class="st18" d="M73.9,113.9l-1.6,0.9v-1.6l1.6-0.9V113.9z"/>
			<path class="st18" d="M72.3,113.3l-1.6-0.9v1.6l1.6,0.9V113.3z"/>
			<path class="st18" d="M73.9,68.5l-1.6,0.9v-1.6l1.6-0.9V68.5z"/>
			
				<linearGradient id="SVGID_00000084528503923721796670000016118449129715338684_" gradientUnits="userSpaceOnUse" x1="70.7461" y1="717.8516" x2="72.3061" y2="717.8516" gradientTransform="matrix(1 0 0 1 0 -649.6016)">
				<stop  offset="0" style="stop-color:#2F33F5"/>
				<stop  offset="1" style="stop-color:#2F33CB"/>
			</linearGradient>
			<path style="fill:url(#SVGID_00000084528503923721796670000016118449129715338684_);" d="M72.3,67.9L70.7,67v1.6l1.6,0.9V67.9z"
				/>
			<path class="st18" d="M118.7,94.6l-1.6,0.9V94l1.6-0.9V94.6z"/>
			<path class="st18" d="M117.2,94l-1.6-0.9v1.6l1.6,0.9V94z"/>
			<path class="st18" d="M72.3,67.8v1.6L71.5,69l-0.8-0.5v-1.6l0.8,0.5L72.3,67.8z"/>
			<path class="st8" d="M161.8,67l-44.7,25.8L72.5,67h-1.6l46.3,26.7L163.4,67H161.8z"/>
			<path class="st18" d="M73.9,66.9l-1.6,0.9l-1.6-0.9l1.6-0.9L73.9,66.9z"/>
			<path class="st18" d="M118.7,93l-1.6,0.9l-1.6-0.9l1.6-0.9L118.7,93z"/>
			<path class="st18" d="M162,66l1.6,0.9l-1.6,0.9l-1.6-0.9L162,66z"/>
		</g>
	</g>
</g>
</svg>
