<?xml version="1.0" encoding="utf-8"?>
<!-- Generator: Adobe Illustrator 25.4.0, SVG Export Plug-In . SVG Version: 6.00 Build 0)  -->
<svg version="1.1" id="Layer_1" xmlns="http://www.w3.org/2000/svg" xmlns:xlink="http://www.w3.org/1999/xlink" x="0px" y="0px"
	 viewBox="0 0 224.9 141.3" style="enable-background:new 0 0 224.9 141.3;" xml:space="preserve">
<style type="text/css">
	.st0{fill:url(#SVGID_1_);}
	.st1{fill:url(#SVGID_00000121265682500575793810000001110830685955282851_);}
	.st2{fill:url(#SVGID_00000172412085978769738880000016637329345687450242_);}
	.st3{fill:url(#SVGID_00000139252901149705351730000002820979749220833930_);}
	.st4{fill:url(#SVGID_00000054245629224167839900000014676038577186272696_);}
	.st5{fill:url(#SVGID_00000181784805693659246860000000470696013175005316_);}
	.st6{fill:url(#SVGID_00000176758329777787397420000010066249210321788085_);}
	.st7{fill:url(#SVGID_00000029045024664045226030000016638096033039419836_);}
	.st8{fill:url(#SVGID_00000104686253427364406230000000613029336359149230_);}
	.st9{fill:url(#SVGID_00000062896311751439573760000018346331468606587039_);}
	.st10{fill:url(#SVGID_00000138568029401021941570000009833190448612579474_);}
	.st11{fill:url(#SVGID_00000022519988737036782890000006794766929533694592_);}
	.st12{fill:#23074D;}
	.st13{fill:url(#SVGID_00000038394321065491952740000018199160023614402729_);}
	.st14{fill:url(#SVGID_00000134251306895366966100000016210227263264579215_);}
	.st15{fill:url(#SVGID_00000103957143569793737870000016634164457211164808_);}
	.st16{fill:url(#SVGID_00000128464993980928007130000014117092179195287226_);}
	.st17{fill:url(#SVGID_00000061471336191016370790000011533482275633794738_);}
	.st18{fill:url(#SVGID_00000139277511235029718220000017405288354098402735_);}
	.st19{fill:url(#SVGID_00000108270839688279750830000014271077496685275009_);}
	.st20{fill:#513821;}
	.st21{fill:#CC5333;}
</style>
<linearGradient id="SVGID_1_" gradientUnits="userSpaceOnUse" x1="143.0816" y1="-808.6364" x2="149.2116" y2="-819.1168" gradientTransform="matrix(1 0 0 -1 0 -778)">
	<stop  offset="1.112760e-02" style="stop-color:#D1D1E0"/>
	<stop  offset="0.4592" style="stop-color:#FFFFFF"/>
	<stop  offset="0.5782" style="stop-color:#FBFBFD"/>
	<stop  offset="0.6835" style="stop-color:#F1F1F5"/>
	<stop  offset="0.7832" style="stop-color:#DFDFE9"/>
	<stop  offset="0.8391" style="stop-color:#D1D1E0"/>
	<stop  offset="1" style="stop-color:#FAFAFC"/>
</linearGradient>
<path class="st0" d="M159.8,32.9c-0.1,1-0.4,1.6-0.9,2c-0.1,0-0.1,0.1-0.2,0.1c-2.7,1.6-9.8,5.6-19.6,11.3c-0.1,0.1-0.2,0.1-0.2,0.1
	c-0.7,0.3-1.6,0.2-2.6-0.5c-1.9-1.2-3.4-4.1-3.4-6.2c0.1-0.9,0.4-1.6,0.9-1.9c0.1-0.1,0.2-0.1,0.2-0.2c11.1-6.4,18.6-10.7,19.6-11.3
	l0.1-0.1c0.7-0.3,1.6-0.2,2.6,0.4C158.4,27.9,159.9,30.7,159.8,32.9z"/>
<linearGradient id="SVGID_00000116226278384991785200000010390137853015292834_" gradientUnits="userSpaceOnUse" x1="105.136" y1="-887.2489" x2="103.29" y2="-898.7189" gradientTransform="matrix(1 0 0 -1 0 -778)">
	<stop  offset="0" style="stop-color:#FFFFFF"/>
	<stop  offset="0.986" style="stop-color:#D1D1E0"/>
</linearGradient>
<path style="fill:url(#SVGID_00000116226278384991785200000010390137853015292834_);" d="M132.6,110.3l-57.7-0.1v4.7l9,5.2l-9,0.1
	v4.7l20.3,11.7l8.6-5l8.6,5l20.3-11.7v-4.8h-9l9-5.2v-4.6C132.7,110.3,132.6,110.3,132.6,110.3z"/>
<linearGradient id="SVGID_00000080892443911118499010000010850523727189512616_" gradientUnits="userSpaceOnUse" x1="117.0997" y1="-862.9941" x2="70.4313" y2="-968.1949" gradientTransform="matrix(1 0 0 -1 0 -778)">
	<stop  offset="0" style="stop-color:#FFFFFF"/>
	<stop  offset="0.986" style="stop-color:#D1D1E0"/>
</linearGradient>
<path style="fill:url(#SVGID_00000080892443911118499010000010850523727189512616_);" d="M112.3,98.5l-8.6,5l-8.6-5l-20.3,11.7
	l8.6,5l-8.6,5l20.3,11.7l8.6-5l8.6,5l20.3-11.7l-8.6-5l8.6-5L112.3,98.5z"/>
<linearGradient id="SVGID_00000148635463142948605340000002143715493035861901_" gradientUnits="userSpaceOnUse" x1="54.9" y1="-766.2191" x2="54.9" y2="-862.7601" gradientTransform="matrix(1 0 0 -1 0 -778)">
	<stop  offset="0" style="stop-color:#FFFFFF"/>
	<stop  offset="0.986" style="stop-color:#D1D1E0"/>
</linearGradient>
<path style="fill:url(#SVGID_00000148635463142948605340000002143715493035861901_);" d="M25.3,105.5c0,0-1.5-0.9-2.3-1.3
	c-0.7-0.4-1.1-1.2-1.1-2.4V40.1c0-2.6,2.1-5.9,4.7-7.4L82,0.7c1.4-0.8,2.7-0.9,3.5-0.5c0,0,0.1,0,0.1,0.1l2.3,1.3L25.3,105.5z"/>
<linearGradient id="SVGID_00000162328926821247194850000004962893618767652249_" gradientUnits="userSpaceOnUse" x1="56.5" y1="-740.1165" x2="56.5" y2="-920.6345" gradientTransform="matrix(1 0 0 -1 0 -778)">
	<stop  offset="0" style="stop-color:#FFFFFF"/>
	<stop  offset="0.986" style="stop-color:#D1D1E0"/>
</linearGradient>
<path style="fill:url(#SVGID_00000162328926821247194850000004962893618767652249_);" d="M88.9,4.1v61.6c0,2.6-2.1,5.8-4.7,7.4
	L32,103.2l-3.2,1.8c-2.6,1.5-4.7,0.6-4.7-2V41.5c0-2.6,2.1-5.8,4.7-7.4l55.4-32C86.8,0.6,88.9,1.5,88.9,4.1z"/>
<linearGradient id="SVGID_00000172413575526167324430000018296711477424082585_" gradientUnits="userSpaceOnUse" x1="64.2727" y1="-795.1001" x2="60.7133" y2="-816.2589" gradientTransform="matrix(1 0 0 -1 0 -778)">
	<stop  offset="0" style="stop-color:#FFFFFF"/>
	<stop  offset="0.986" style="stop-color:#D1D1E0"/>
</linearGradient>
<path style="fill:url(#SVGID_00000172413575526167324430000018296711477424082585_);" d="M45.1,62.3c0.2,4.1,1.7,6.9,4,8.3l0.1,0.1
	l3.1,1.8L73,37c0,0-0.7-0.5-3.2-1.9c-2.8-1.6-6.8-1.2-11.1,1.6C50.7,41.9,44.6,53.3,45.1,62.3z"/>
<linearGradient id="SVGID_00000152227293048303401260000000933492344706432898_" gradientUnits="userSpaceOnUse" x1="105.9309" y1="-766.5525" x2="-10.8712" y2="-945.0517" gradientTransform="matrix(1 0 0 -1 0 -778)">
	<stop  offset="0" style="stop-color:#FFFFFF"/>
	<stop  offset="0.986" style="stop-color:#D1D1E0"/>
</linearGradient>
<path style="fill:url(#SVGID_00000152227293048303401260000000933492344706432898_);" d="M48.1,64.1c0.2,4.1,1.7,6.9,4,8.3
	c2.8,1.8,6.9,1.5,11.3-1.4c8-5.1,14.1-16.6,13.7-25.6s-7.3-12.1-15.3-6.9S47.7,55.1,48.1,64.1z"/>
<linearGradient id="SVGID_00000026863424603078409790000016464999083631993503_" gradientUnits="userSpaceOnUse" x1="33" y1="-790.9874" x2="33" y2="-909.1605" gradientTransform="matrix(1 0 0 -1 0 -778)">
	<stop  offset="0" style="stop-color:#FFFFFF"/>
	<stop  offset="0.986" style="stop-color:#D1D1E0"/>
</linearGradient>
<path style="fill:url(#SVGID_00000026863424603078409790000016464999083631993503_);" d="M4.4,128.1c0,0-2.4-1.4-3.3-1.9
	C0.4,125.8,0,125,0,123.8V62.1c0-2.6,2.1-5.9,4.7-7.4l55.4-32c1.4-0.8,2.7-0.9,3.5-0.5c0,0,0.1,0,0.1,0.1l2.3,1.3L4.4,128.1z"/>
<linearGradient id="SVGID_00000044151049296414070920000017120830799857638577_" gradientUnits="userSpaceOnUse" x1="24.8143" y1="-808.9481" x2="72.0776" y2="-1008.8781" gradientTransform="matrix(1 0 0 -1 0 -778)">
	<stop  offset="0" style="stop-color:#FFFFFF"/>
	<stop  offset="0.986" style="stop-color:#D1D1E0"/>
</linearGradient>
<path style="fill:url(#SVGID_00000044151049296414070920000017120830799857638577_);" d="M67.9,26.6v61.6c0,2.6-2.1,5.9-4.7,7.4
	l-55.4,32c-2.6,1.5-4.7,0.6-4.7-1.9V64.1c0-2.6,2.1-5.8,4.7-7.4l55.4-32C65.8,23.2,67.9,24.1,67.9,26.6z"/>
<radialGradient id="SVGID_00000139275180510334614090000013949581351089165493_" cx="-1760.618" cy="448.3878" r="1" gradientTransform="matrix(46.8709 0 0 -46.8709 82635.4453 21077.0801)" gradientUnits="userSpaceOnUse">
	<stop  offset="0" style="stop-color:#FFFFFF"/>
	<stop  offset="0.1926" style="stop-color:#FFFFFF"/>
	<stop  offset="0.7176" style="stop-color:#D1D1E0"/>
	<stop  offset="0.8999" style="stop-color:#D9D9E5"/>
	<stop  offset="0.9993" style="stop-color:#EBEBF1"/>
</radialGradient>
<path style="fill:url(#SVGID_00000139275180510334614090000013949581351089165493_);" d="M106.8,108.1c19,0,34.3-15.4,34.3-34.3
	s-15.4-34.3-34.3-34.3c-19,0-34.3,15.4-34.3,34.3S87.8,108.1,106.8,108.1z"/>
<linearGradient id="SVGID_00000096759431670343058130000007180581646061716404_" gradientUnits="userSpaceOnUse" x1="164.9" y1="-789.158" x2="164.9" y2="-920.4995" gradientTransform="matrix(1 0 0 -1 0 -778)">
	<stop  offset="0" style="stop-color:#FFFFFF"/>
	<stop  offset="0.986" style="stop-color:#D1D1E0"/>
</linearGradient>
<path style="fill:url(#SVGID_00000096759431670343058130000007180581646061716404_);" d="M135.3,133.1c0,0-1.5-0.9-2.3-1.3
	c-0.7-0.4-1.1-1.2-1.1-2.4V67.8c0-2.6,2.1-5.9,4.7-7.4l55.4-32c1.4-0.8,2.7-0.9,3.5-0.5c0,0,0.1,0,0.1,0.1l2.3,1.3L135.3,133.1z"/>
<linearGradient id="SVGID_00000080912232923663278930000006799238179165933440_" gradientUnits="userSpaceOnUse" x1="147.7012" y1="-779.7283" x2="194.9642" y2="-979.658" gradientTransform="matrix(1 0 0 -1 0 -778)">
	<stop  offset="0" style="stop-color:#FFFFFF"/>
	<stop  offset="0.986" style="stop-color:#D1D1E0"/>
</linearGradient>
<path style="fill:url(#SVGID_00000080912232923663278930000006799238179165933440_);" d="M198.9,31.7v61.6c0,2.6-2.1,5.8-4.7,7.4
	l-1.6,0.9L142,130.9l-3.2,1.9c-2.6,1.5-4.7,0.6-4.7-2V69.2c0-2.6,2.1-5.8,4.7-7.4l55.4-32C196.8,28.2,198.9,29.1,198.9,31.7z"/>
<path class="st12" d="M207.9,67.4l0.4,1.1c1.7,4.6,4.4,7.8,8,9.2c-3.6,5.6-6.4,12-8,18.6l-0.4,1.6l-0.4-1.1c-1.7-4.6-4.4-7.8-8-9.2
	c3.6-5.6,6.4-12,8-18.6L207.9,67.4z"/>
<path class="st12" d="M217.9,55.4l0.2,0.5c0.7,2,1.9,3.4,3.4,4c-1.6,2.4-2.7,5.1-3.4,8l-0.2,0.7l-0.2-0.5c-0.7-1.9-2-3.4-3.4-4
	c1.6-2.4,2.7-5.1,3.4-8L217.9,55.4z"/>
<path class="st12" d="M120.5,64.6l0.3,0.8c1.2,3.4,3.3,5.8,5.9,6.8c-2.7,4.1-4.7,8.9-5.9,13.7l-0.3,1.2l-0.3-0.8
	c-1.2-3.4-3.3-5.8-5.9-6.8c2.7-4.1,4.7-8.9,5.9-13.7L120.5,64.6z"/>
<radialGradient id="SVGID_00000023274846094841318190000013314491305086646946_" cx="-1615.7614" cy="348.059" r="1" gradientTransform="matrix(9.8178 0 0 -9.8178 15953.5547 3443.1294)" gradientUnits="userSpaceOnUse">
	<stop  offset="0" style="stop-color:#FFFFFF"/>
	<stop  offset="0.1926" style="stop-color:#FFFFFF"/>
	<stop  offset="0.7176" style="stop-color:#D1D1E0"/>
	<stop  offset="0.8999" style="stop-color:#D9D9E5"/>
	<stop  offset="0.9993" style="stop-color:#EBEBF1"/>
</radialGradient>
<path style="fill:url(#SVGID_00000023274846094841318190000013314491305086646946_);" d="M88.9,35.9c4,0,7.2-3.2,7.2-7.2
	s-3.2-7.2-7.2-7.2s-7.2,3.2-7.2,7.2S85,35.9,88.9,35.9z"/>
<linearGradient id="SVGID_00000173141248544279087050000001786337040400860817_" gradientUnits="userSpaceOnUse" x1="130.1603" y1="-804.8253" x2="140.9373" y2="-830.2356" gradientTransform="matrix(1 0 0 -1 0 -778)">
	<stop  offset="0" style="stop-color:#FFFFFF"/>
	<stop  offset="0.986" style="stop-color:#D1D1E0"/>
</linearGradient>
<path style="fill:url(#SVGID_00000173141248544279087050000001786337040400860817_);" d="M140.1,44.3c-0.1,0.9-0.4,1.6-0.9,2
	c-0.1,0.1-0.2,0.1-0.2,0.1c-0.7,0.3-1.6,0.2-2.6-0.5c-1.9-1.2-3.4-4.1-3.4-6.2c0.1-0.9,0.4-1.6,0.9-2c0.1-0.1,0.2-0.1,0.2-0.2
	c0.7-0.3,1.6-0.2,2.6,0.5C138.7,39.3,140.2,42.1,140.1,44.3z"/>
<linearGradient id="SVGID_00000002372474012447910330000015990299188430093718_" gradientUnits="userSpaceOnUse" x1="142.137" y1="-802.1423" x2="143.653" y2="-804.7788" gradientTransform="matrix(1 0 0 -1 0 -778)">
	<stop  offset="1.112760e-02" style="stop-color:#D1D1E0"/>
	<stop  offset="0.4592" style="stop-color:#FFFFFF"/>
	<stop  offset="0.5782" style="stop-color:#FBFBFD"/>
	<stop  offset="0.6835" style="stop-color:#F1F1F5"/>
	<stop  offset="0.7832" style="stop-color:#DFDFE9"/>
	<stop  offset="0.8391" style="stop-color:#D1D1E0"/>
	<stop  offset="1" style="stop-color:#FAFAFC"/>
</linearGradient>
<path style="fill:url(#SVGID_00000002372474012447910330000015990299188430093718_);" d="M163.6,14.8c0,0.3-0.2,0.5-0.3,0.6
	c0,0-36.3,21-39.2,22.6c-0.2,0.2-0.5,0.1-0.9-0.1c-0.6-0.4-1.2-1.3-1.1-2c0-0.3,0.1-0.5,0.3-0.6l39.3-22.7c0.2-0.1,0.5-0.1,0.8,0.2
	C163.1,13.2,163.6,14.1,163.6,14.8z"/>
<linearGradient id="SVGID_00000072976250461148356770000001293469315504048019_" gradientUnits="userSpaceOnUse" x1="118.455" y1="-804.8354" x2="125.508" y2="-819.4026" gradientTransform="matrix(1 0 0 -1 0 -778)">
	<stop  offset="0" style="stop-color:#FFFFFF"/>
	<stop  offset="0.986" style="stop-color:#D1D1E0"/>
</linearGradient>
<path style="fill:url(#SVGID_00000072976250461148356770000001293469315504048019_);" d="M124.4,37.4c0,0.3-0.2,0.5-0.3,0.7
	c-0.2,0.2-0.5,0.1-0.9-0.1c-0.6-0.4-1.2-1.3-1.1-2c0-0.3,0.1-0.5,0.3-0.6c0,0,0.1,0,0.1-0.1c0.2-0.1,0.5-0.1,0.9,0.2
	C123.9,35.8,124.4,36.7,124.4,37.4z"/>
<linearGradient id="SVGID_00000157301461824566781380000010477354879993224882_" gradientUnits="userSpaceOnUse" x1="163.2664" y1="-793.4456" x2="163.2974" y2="-793.5103" gradientTransform="matrix(1 0 0 -1 0 -778)">
	<stop  offset="0" style="stop-color:#FFFFFF"/>
	<stop  offset="0.986" style="stop-color:#D1D1E0"/>
</linearGradient>
<path style="fill:url(#SVGID_00000157301461824566781380000010477354879993224882_);" d="M163.3,15.4
	C163.3,15.5,163.3,15.5,163.3,15.4C163.2,15.5,163.2,15.5,163.3,15.4C163.3,15.5,163.3,15.5,163.3,15.4z"/>
<linearGradient id="SVGID_00000174573935213298362940000013581941551762549690_" gradientUnits="userSpaceOnUse" x1="127.8245" y1="-885.3054" x2="122.1885" y2="-895.2924" gradientTransform="matrix(1 0 0 -1 0 -778)">
	<stop  offset="1.112760e-02" style="stop-color:#D1D1E0"/>
	<stop  offset="0.4592" style="stop-color:#FFFFFF"/>
	<stop  offset="0.5782" style="stop-color:#FBFBFD"/>
	<stop  offset="0.6835" style="stop-color:#F1F1F5"/>
	<stop  offset="0.7832" style="stop-color:#DFDFE9"/>
	<stop  offset="0.8391" style="stop-color:#D1D1E0"/>
	<stop  offset="1" style="stop-color:#FAFAFC"/>
</linearGradient>
<path style="fill:url(#SVGID_00000174573935213298362940000013581941551762549690_);" d="M156.1,124.5l-5.1,8.6
	c-26.8-15.4-49.7-28.7-54.8-31.6c-0.5-0.4-0.9-1-0.9-2c-0.1-2.2,1.4-5,3.4-6.2c1-0.6,1.9-0.8,2.6-0.5l0.2,0.2L156.1,124.5z"/>
<linearGradient id="SVGID_00000179607902537627469460000016071549806975079317_" gradientUnits="userSpaceOnUse" x1="148.9783" y1="-891.4191" x2="156.0973" y2="-915.28" gradientTransform="matrix(1 0 0 -1 0 -778)">
	<stop  offset="0" style="stop-color:#FFFFFF"/>
	<stop  offset="0.986" style="stop-color:#D1D1E0"/>
</linearGradient>
<path style="fill:url(#SVGID_00000179607902537627469460000016071549806975079317_);" d="M150.1,131.2c0.1,1,0.4,1.6,0.9,2
	c0.7,0.5,1.7,0.4,2.7-0.3c1.9-1.2,3.4-4.1,3.4-6.2c-0.1-2.2-1.8-3-3.7-1.7C151.5,126.2,149.9,129,150.1,131.2z"/>
<path class="st20" d="M24.8,73c0.2,3.1,1.3,5.3,3,6.4l0.1,0.1l2.4,1.4l15.9-27.2c0,0-0.5-0.4-2.4-1.4c-2.2-1.2-5.2-0.9-8.5,1.2
	C29.1,57.3,24.4,66.1,24.8,73z"/>
<path class="st21" d="M27.1,74.4c0.2,3.1,1.3,5.3,3,6.4c2.2,1.4,5.3,1.1,8.7-1.1C45,75.7,49.7,67,49.4,60c-0.3-6.9-5.6-9.3-11.7-5.3
	S26.8,67.5,27.1,74.4z"/>
<path class="st20" d="M10.8,128.4l-2.2-1.2c1.2-15.8,11.8-34.1,25.2-42.7c8.1-5.2,15.5-5.8,20.7-2.7c1.1,0.7,2,1.1,2,1.1L10.8,128.4
	z"/>
<path class="st21" d="M64.2,97.5l-53.4,30.9c1.2-15.7,11.8-34,25.2-42.7C50.5,76.3,63,81.7,64.2,97.5z"/>
<path class="st12" d="M43,108.5l29.1-2.9l-17.2,23.7L43,108.5z"/>
<path class="st12" d="M56.2,124.8c0,5.5-3.9,7.8-8.7,5s-8.7-9.5-8.7-15.1s3.9-7.8,8.7-5C52.4,112.5,56.3,119.2,56.2,124.8z"/>
<path class="st12" d="M38.4,113.9c-3.3-2.1-6.4-2.4-8.5-1.1c-0.5,0.3-1.4,0.9-1.4,0.9s-1.5,3.4-1.6,5.5c-0.3,6.8,4.3,15.4,10.3,19.3
	c2.5,1.6,6.8,2,6.8,2s1.2-0.7,1.7-1c1.7-1.1,2.8-3.3,3-6.2C49,126.5,44.4,117.8,38.4,113.9z M41.8,129.6c-0.1,1.3-0.5,2.3-1.3,2.7
	c-0.9,0.6-2.3,0.5-3.7-0.5c-2.6-1.7-4.6-5.4-4.4-8.3c0.2-3,2.3-3.9,5-2.3C40,123,42,126.7,41.8,129.6z"/>
<path class="st12" d="M36.3,114.5c-6-3.5-10.9-0.7-10.9,6.3s4.9,15.4,10.9,19c6,3.5,10.9,0.7,10.9-6.3
	C47.2,126.5,42.3,118,36.3,114.5z M36.3,133.2c-2.9-1.7-5.3-5.8-5.3-9.1s2.3-4.8,5.3-3c2.9,1.7,5.3,5.8,5.3,9.1
	C41.5,133.5,39.2,134.9,36.3,133.2z"/>
<path class="st20" d="M224.9,47.1l-7.8,4.5v-3.9l7.8-4.5V47.1z"/>
<path class="st20" d="M188,56.2l-13.7,8l0.2-1.9c0.6-4.5,0.1-11.5,0.1-11.5s-1.9-1.1-2.2-1.2c-0.5-0.3-1.3-0.2-2.3,0.4
	c-1.4,0.8-2.2,2.7-2.2,4.5V60l-1.2,2.7c-2.2,5.1-5.8,10.8-8.7,15.9l-0.7,1.3v22.5l19.3-11.2c5.6-3.3,10.5-10.1,11.5-16.2l4.3-17.9
	c0,0-1.5-0.9-2-1.2C189.9,55.6,189,55.7,188,56.2z"/>
<path class="st20" d="M146.6,112.8l-2.3-1.1V83.4l13.3-7.6l2.3,1.1L146.6,112.8z"/>
<path class="st21" d="M190.1,57.5l-13.7,8l0.2-1.9c0.6-4.5,0.2-8.5-1.2-11.7l-0.2-0.3c-0.5-1-1.4-1.3-3-0.4
	c-1.4,0.8-2.2,2.7-2.2,4.5v5.7l-1.2,2.7c-2.2,5.1-5.8,10.8-8.7,15.9l-0.7,1.3v22.5l19.3-11.2c5.6-3.3,10.5-10.1,11.5-16.2l2.9-17
	C193.4,57.2,192,56.4,190.1,57.5z"/>
<path class="st21" d="M159.9,105.1l-13.3,7.6V84.5l13.3-7.6V105.1z"/>
</svg>
