<?xml version="1.0" encoding="utf-8"?>
<!-- Generator: Adobe Illustrator 25.4.0, SVG Export Plug-In . SVG Version: 6.00 Build 0)  -->
<svg version="1.1" id="Layer_1" xmlns="http://www.w3.org/2000/svg" xmlns:xlink="http://www.w3.org/1999/xlink" x="0px" y="0px"
	 viewBox="0 0 163 151.9" style="enable-background:new 0 0 163 151.9;" xml:space="preserve">
<style type="text/css">
	.st0{clip-path:url(#SVGID_00000008870987206603919470000011056535078397503398_);}
	.st1{fill:#513821;}
	.st2{fill:#CC5333;}
	.st3{fill:url(#SVGID_00000087378168158979729340000014275901529192557749_);}
	.st4{fill:url(#SVGID_00000054969833093607851000000003040716614067474621_);}
	.st5{fill:url(#SVGID_00000158738869255299883100000005947904123315291054_);}
	.st6{fill:url(#SVGID_00000119079460305070598950000005275652582031888061_);}
	.st7{fill:url(#SVGID_00000109740433998416606850000004534779001267790485_);}
	.st8{fill:url(#SVGID_00000134214815284080547060000007012867585267141004_);}
	.st9{fill:url(#SVGID_00000137125264357082696450000003620119365828154289_);}
	.st10{fill:url(#SVGID_00000023244188363077564200000013623201975017434017_);}
	.st11{fill:url(#SVGID_00000151516853215687404010000013581039797397284761_);}
	.st12{fill:url(#SVGID_00000076600129900959609050000013140519108174085508_);}
	.st13{fill:url(#SVGID_00000087373654093477420620000001746473524794185136_);}
	.st14{fill:url(#SVGID_00000161592443936335601410000002789090274949223599_);}
	.st15{fill:url(#SVGID_00000134949202460710301890000013286772536670386332_);}
	.st16{fill:url(#SVGID_00000074433903209894085920000008950695196470197128_);}
	.st17{fill:url(#SVGID_00000137132538172049998600000013717913138573463170_);}
	.st18{fill:url(#SVGID_00000049199142851906813120000009482095886905591979_);}
	.st19{fill:url(#SVGID_00000136394323497913656760000001968788628153547953_);}
	.st20{fill:url(#SVGID_00000021112896636905308110000001257725703262427305_);}
	.st21{fill:url(#SVGID_00000048463278128824633310000014123854737941344421_);}
	.st22{fill:url(#SVGID_00000096769845774196707840000001198350438001594245_);}
	.st23{fill:url(#SVGID_00000000201512148076876700000017759597852801936279_);}
	.st24{fill:url(#SVGID_00000022549451405617456120000014215977940223205799_);}
	.st25{fill:#23074D;}
	.st26{fill:url(#SVGID_00000079452442881029013460000008420782843469919111_);}
	.st27{fill:url(#SVGID_00000133498690442232136580000009642223724809806230_);}
	.st28{fill:url(#SVGID_00000117669699942533685790000005736113314127462816_);}
	.st29{fill:url(#SVGID_00000067947742764811652770000009330038776148036521_);}
</style>
<g>
	<g>
		<defs>
			<rect id="SVGID_1_" y="-2.3" width="312" height="156"/>
		</defs>
		<clipPath id="SVGID_00000072985396774613412210000003231429267248904863_">
			<use xlink:href="#SVGID_1_"  style="overflow:visible;"/>
		</clipPath>
		<g style="clip-path:url(#SVGID_00000072985396774613412210000003231429267248904863_);">
			<path class="st1" d="M44.9,46.2l-15,42.4l1.6,1l8.4-6.8v13.4l1.6,0.9L46.6,47L44.9,46.2z"/>
			<path class="st2" d="M61.5,72.2l-15.1-25l-15,42.3l10-5.8v13.4l10.8-6.7V77.5L61.5,72.2z"/>
			
				<linearGradient id="SVGID_00000136382804419682872530000015470121570427431579_" gradientUnits="userSpaceOnUse" x1="122.8399" y1="710.2013" x2="126.2939" y2="710.2375" gradientTransform="matrix(1 0 0 1 0 -638.6797)">
				<stop  offset="1.112760e-02" style="stop-color:#D1D1E0"/>
				<stop  offset="0.4592" style="stop-color:#FFFFFF"/>
				<stop  offset="0.5782" style="stop-color:#FBFBFD"/>
				<stop  offset="0.6835" style="stop-color:#F1F1F5"/>
				<stop  offset="0.7832" style="stop-color:#DFDFE9"/>
				<stop  offset="0.8391" style="stop-color:#D1D1E0"/>
				<stop  offset="1" style="stop-color:#FAFAFC"/>
			</linearGradient>
			<path style="fill:url(#SVGID_00000136382804419682872530000015470121570427431579_);" d="M126.4,50.5h-3.3v41
				c-0.1,0.2,0.1,0.5,0.5,0.8c0.6,0.4,1.6,0.4,2.3,0c0.4-0.2,0.5-0.5,0.5-0.8V50.5z"/>
			
				<linearGradient id="SVGID_00000010279057297842339650000010224512918775819670_" gradientUnits="userSpaceOnUse" x1="117.9733" y1="692.3278" x2="140.1203" y2="682.2922" gradientTransform="matrix(1 0 0 1 0 -638.6797)">
				<stop  offset="1.112760e-02" style="stop-color:#D1D1E0"/>
				<stop  offset="0.1526" style="stop-color:#D1D1E0"/>
				<stop  offset="0.5494" style="stop-color:#FAFAFC"/>
			</linearGradient>
			<path style="fill:url(#SVGID_00000010279057297842339650000010224512918775819670_);" d="M124.7,51.5c0.9,0,1.6-0.4,1.6-0.9
				s-0.7-0.9-1.6-0.9s-1.6,0.4-1.6,0.9S123.8,51.5,124.7,51.5z"/>
			
				<linearGradient id="SVGID_00000081629759142625823940000012395463416418277551_" gradientUnits="userSpaceOnUse" x1="111.4021" y1="721.2557" x2="115.4511" y2="721.298" gradientTransform="matrix(1 0 0 1 0 -638.6797)">
				<stop  offset="1.112760e-02" style="stop-color:#D1D1E0"/>
				<stop  offset="0.4592" style="stop-color:#FFFFFF"/>
				<stop  offset="0.5782" style="stop-color:#FBFBFD"/>
				<stop  offset="0.6835" style="stop-color:#F1F1F5"/>
				<stop  offset="0.7832" style="stop-color:#DFDFE9"/>
				<stop  offset="0.8391" style="stop-color:#D1D1E0"/>
				<stop  offset="1" style="stop-color:#FAFAFC"/>
			</linearGradient>
			<path style="fill:url(#SVGID_00000081629759142625823940000012395463416418277551_);" d="M115.6,68.6v27.9
				c0.1,0.3-0.2,0.7-0.5,0.9c-0.8,0.5-2,0.5-2.9,0c-0.5-0.2-0.6-0.6-0.5-0.9V68.6c0-0.3,0.2-0.6,0.6-0.8c0.8-0.5,2-0.5,2.9,0
				C115.4,68,115.6,68.3,115.6,68.6z"/>
			
				<linearGradient id="SVGID_00000039113359718870392180000009889970274364857271_" gradientUnits="userSpaceOnUse" x1="122.8067" y1="703.1354" x2="103.8226" y2="711.7374" gradientTransform="matrix(1 0 0 1 0 -638.6797)">
				<stop  offset="1.112760e-02" style="stop-color:#D1D1E0"/>
				<stop  offset="0.2048" style="stop-color:#D1D1E0"/>
				<stop  offset="1" style="stop-color:#FAFAFC"/>
			</linearGradient>
			<path style="fill:url(#SVGID_00000039113359718870392180000009889970274364857271_);" d="M115.6,68.6c0,0.3-0.2,0.6-0.6,0.9
				c-0.8,0.5-2,0.5-2.9,0c-0.4-0.2-0.6-0.5-0.6-0.9c0-0.3,0.2-0.6,0.6-0.8c0.8-0.5,2-0.5,2.9,0C115.4,68,115.6,68.3,115.6,68.6z"/>
			
				<linearGradient id="SVGID_00000000909889670818845910000009211366231607024549_" gradientUnits="userSpaceOnUse" x1="0" y1="712.4797" x2="17.0278" y2="712.4797" gradientTransform="matrix(1 0 0 1 0 -638.6797)">
				<stop  offset="0" style="stop-color:#2F33F5"/>
				<stop  offset="1" style="stop-color:#2F33CB"/>
			</linearGradient>
			<path style="fill:url(#SVGID_00000000909889670818845910000009211366231607024549_);" d="M8.7,64.6L0,69.5v8.6L8.5,83l8.5-4.9
				v-8.6L8.7,64.6z"/>
			<path class="st1" d="M17,69.5l-8.5,4.9L0,69.5l8.7-4.9L17,69.5z"/>
			<path class="st2" d="M17,78.1L8.5,83v-8.6l8.5-4.9V78.1z"/>
			<path class="st1" d="M8.5,74.4L0,69.5v8.6L8.5,83V74.4z"/>
			
				<linearGradient id="SVGID_00000005254528073928537460000014494429619439261102_" gradientUnits="userSpaceOnUse" x1="141.2" y1="723.7297" x2="163.04" y2="723.7297" gradientTransform="matrix(1 0 0 1 0 -638.6797)">
				<stop  offset="0" style="stop-color:#2F33F5"/>
				<stop  offset="1" style="stop-color:#2F33CB"/>
			</linearGradient>
			<path style="fill:url(#SVGID_00000005254528073928537460000014494429619439261102_);" d="M155.2,71.7l-7.8,4.5v7.1l-6.2,3.7v7
				l7.8,4.4l14-8.1V76.2L155.2,71.7z"/>
			<path class="st1" d="M155.2,87.8l-7.8-4.5v-7.1l7.8,4.5V87.8z"/>
			<path class="st1" d="M149,98.4l-7.8-4.4v-7l7.8,4.5V98.4z"/>
			<path class="st1" d="M163,76.2l-7.8-4.5l-7.8,4.5l7.8,4.5L163,76.2z"/>
			<path class="st1" d="M155.2,87.8l-6.2,3.7l-7.8-4.5l6.2-3.7L155.2,87.8z"/>
			<path class="st2" d="M155.2,80.7v7.1l-6.2,3.7v6.9l14-8.1V76.2L155.2,80.7z"/>
			
				<linearGradient id="SVGID_00000060723248320592707600000003140056324660338056_" gradientUnits="userSpaceOnUse" x1="145.021" y1="692.8381" x2="72.8523" y2="782.5939" gradientTransform="matrix(1 0 0 1 0 -638.6797)">
				<stop  offset="1.112760e-02" style="stop-color:#D1D1E0"/>
				<stop  offset="0.8056" style="stop-color:#FFFFFF"/>
			</linearGradient>
			<path style="fill:url(#SVGID_00000060723248320592707600000003140056324660338056_);" d="M124,101.6l-16.4-9.4L124,101.6z
				 M107.6,92V78L84.2,64.5l-21,12.2v42.1l56.2,32.4l21.1-12.2v-14l-16.4-9.4v-14L107.6,92z"/>
			
				<linearGradient id="SVGID_00000065773909034019776960000017894752870091536546_" gradientUnits="userSpaceOnUse" x1="129.1555" y1="777.0461" x2="27.4953" y2="816.0461" gradientTransform="matrix(1 0 0 1 0 -638.6797)">
				<stop  offset="1.112760e-02" style="stop-color:#D1D1E0"/>
				<stop  offset="0.8056" style="stop-color:#FFFFFF"/>
			</linearGradient>
			<path style="fill:url(#SVGID_00000065773909034019776960000017894752870091536546_);" d="M119.3,151.2l21.1-12.2v-14l-21.1,12.2
				C119.3,137.2,119.3,151.2,119.3,151.2z"/>
			
				<linearGradient id="SVGID_00000012437566324976565640000016500159483290734770_" gradientUnits="userSpaceOnUse" x1="117.1023" y1="708.4086" x2="48.7221" y2="825.1489" gradientTransform="matrix(1 0 0 1 0 -638.6797)">
				<stop  offset="1.112760e-02" style="stop-color:#D1D1E0"/>
				<stop  offset="0.8056" style="stop-color:#FFFFFF"/>
			</linearGradient>
			<path style="fill:url(#SVGID_00000012437566324976565640000016500159483290734770_);" d="M119.3,137.2v14l-56.2-32.4V76.7
				l23.4,13.5v14l16.4,9.4v14L119.3,137.2z"/>
			
				<linearGradient id="SVGID_00000091720210831394452320000014768922255197025430_" gradientUnits="userSpaceOnUse" x1="119.2387" y1="751.1973" x2="17.579" y2="790.1973" gradientTransform="matrix(1 0 0 1 0 -638.6797)">
				<stop  offset="1.112760e-02" style="stop-color:#D1D1E0"/>
				<stop  offset="0.8056" style="stop-color:#FFFFFF"/>
			</linearGradient>
			<path style="fill:url(#SVGID_00000091720210831394452320000014768922255197025430_);" d="M103,127.8l21.1-12.2v-14L103,113.7
				V127.8z"/>
			
				<linearGradient id="SVGID_00000117655895717238695270000003334438430723159684_" gradientUnits="userSpaceOnUse" x1="109.236" y1="725.124" x2="7.5765" y2="764.1237" gradientTransform="matrix(1 0 0 1 0 -638.6797)">
				<stop  offset="1.112760e-02" style="stop-color:#D1D1E0"/>
				<stop  offset="0.8056" style="stop-color:#FFFFFF"/>
			</linearGradient>
			<path style="fill:url(#SVGID_00000117655895717238695270000003334438430723159684_);" d="M86.6,104.2l21-12.2V78l-21,12.2V104.2z
				"/>
			
				<linearGradient id="SVGID_00000009563022665434562640000017917557190257776563_" gradientUnits="userSpaceOnUse" x1="96.5467" y1="693.6227" x2="70.7078" y2="745.5637" gradientTransform="matrix(1 0 0 1 0 -638.6797)">
				<stop  offset="1.112760e-02" style="stop-color:#D1D1E0"/>
				<stop  offset="0.8056" style="stop-color:#FFFFFF"/>
			</linearGradient>
			<path style="fill:url(#SVGID_00000009563022665434562640000017917557190257776563_);" d="M63.2,76.7l21.1-12.2L107.6,78l-21,12.2
				L63.2,76.7z"/>
			
				<linearGradient id="SVGID_00000024691004668614312330000006794939789388092054_" gradientUnits="userSpaceOnUse" x1="119.5405" y1="723.8192" x2="88.6002" y2="762.2988" gradientTransform="matrix(1 0 0 1 0 -638.6797)">
				<stop  offset="1.112760e-02" style="stop-color:#D1D1E0"/>
				<stop  offset="0.8056" style="stop-color:#FFFFFF"/>
			</linearGradient>
			<path style="fill:url(#SVGID_00000024691004668614312330000006794939789388092054_);" d="M86.6,104.2l21-12.2l16.4,9.5l-21,12.2
				L86.6,104.2z"/>
			
				<linearGradient id="SVGID_00000113331481991943172530000007960095274859724952_" gradientUnits="userSpaceOnUse" x1="141.0313" y1="741.0997" x2="110.0913" y2="779.5797" gradientTransform="matrix(1 0 0 1 0 -638.6797)">
				<stop  offset="1.112760e-02" style="stop-color:#D1D1E0"/>
				<stop  offset="0.8056" style="stop-color:#FFFFFF"/>
			</linearGradient>
			<path style="fill:url(#SVGID_00000113331481991943172530000007960095274859724952_);" d="M103,127.8l21.1-12.2l16.4,9.4
				l-21.1,12.2L103,127.8z"/>
			
				<radialGradient id="SVGID_00000090286251142406755460000006882450958044527534_" cx="-1005.0888" cy="-127.0187" r="1" gradientTransform="matrix(46.8709 0 0 46.8709 47200.3516 5974.75)" gradientUnits="userSpaceOnUse">
				<stop  offset="0" style="stop-color:#FFFFFF"/>
				<stop  offset="0.1926" style="stop-color:#FFFFFF"/>
				<stop  offset="0.7176" style="stop-color:#D1D1E0"/>
				<stop  offset="0.8999" style="stop-color:#D9D9E5"/>
				<stop  offset="0.9993" style="stop-color:#EBEBF1"/>
			</radialGradient>
			<path style="fill:url(#SVGID_00000090286251142406755460000006882450958044527534_);" d="M84.1,68.6c19,0,34.3-15.4,34.3-34.3
				C118.4,15.4,103,0,84.1,0c-19,0-34.3,15.4-34.3,34.3C49.8,53.3,65.1,68.6,84.1,68.6z"/>
			
				<radialGradient id="SVGID_00000049215640490882391540000006277060983426459294_" cx="-934.4449" cy="-73.3652" r="1" gradientTransform="matrix(11.0961 0 0 11.0961 10483.252 865.7157)" gradientUnits="userSpaceOnUse">
				<stop  offset="0" style="stop-color:#FFFFFF"/>
				<stop  offset="0.1926" style="stop-color:#FFFFFF"/>
				<stop  offset="0.7176" style="stop-color:#D1D1E0"/>
				<stop  offset="0.8999" style="stop-color:#D9D9E5"/>
				<stop  offset="0.9993" style="stop-color:#EBEBF1"/>
			</radialGradient>
			<path style="fill:url(#SVGID_00000049215640490882391540000006277060983426459294_);" d="M112.9,62.9c4.5,0,8.1-3.6,8.1-8.1
				s-3.6-8.1-8.1-8.1s-8.1,3.6-8.1,8.1S108.5,62.9,112.9,62.9z"/>
			
				<linearGradient id="SVGID_00000096025303939552046630000010946967265117301124_" gradientUnits="userSpaceOnUse" x1="116.9706" y1="802.0826" x2="-8.8882" y2="735.8574" gradientTransform="matrix(1 0 0 1 0 -638.6797)">
				<stop  offset="1.112760e-02" style="stop-color:#D1D1E0"/>
				<stop  offset="0.8056" style="stop-color:#FFFFFF"/>
			</linearGradient>
			<path style="fill:url(#SVGID_00000096025303939552046630000010946967265117301124_);" d="M21.1,116.3l-16.4,9.4v14l21.1,12.2
				L65.5,129v-28.1l-21-12.1l-23.4,13.5V116.3z"/>
			
				<linearGradient id="SVGID_00000095334355344672447560000006010967535949300390_" gradientUnits="userSpaceOnUse" x1="25.6295" y1="726.1991" x2="84.3895" y2="840.5989" gradientTransform="matrix(1 0 0 1 0 -638.6797)">
				<stop  offset="1.112760e-02" style="stop-color:#D1D1E0"/>
				<stop  offset="0.8056" style="stop-color:#FFFFFF"/>
			</linearGradient>
			<path style="fill:url(#SVGID_00000095334355344672447560000006010967535949300390_);" d="M25.7,151.9L65.5,129v-28.1l-23.4,13.5
				v14l-16.4,9.4C25.7,137.8,25.7,151.9,25.7,151.9z"/>
			
				<linearGradient id="SVGID_00000180368767468674425000000000950930797474860695_" gradientUnits="userSpaceOnUse" x1="16.9145" y1="721.2944" x2="13.2745" y2="844.274" gradientTransform="matrix(1 0 0 1 0 -638.6797)">
				<stop  offset="1.112760e-02" style="stop-color:#D1D1E0"/>
				<stop  offset="0.8056" style="stop-color:#FFFFFF"/>
			</linearGradient>
			<path style="fill:url(#SVGID_00000180368767468674425000000000950930797474860695_);" d="M25.7,151.9l-21-12.1v-14L25.8,138
				L25.7,151.9L25.7,151.9z"/>
			
				<linearGradient id="SVGID_00000023242397347383112170000017444986439359515821_" gradientUnits="userSpaceOnUse" x1="35.9513" y1="715.0177" x2="23.2955" y2="827.3381" gradientTransform="matrix(1 0 0 1 0 -638.6797)">
				<stop  offset="1.112760e-02" style="stop-color:#D1D1E0"/>
				<stop  offset="0.8056" style="stop-color:#FFFFFF"/>
			</linearGradient>
			<path style="fill:url(#SVGID_00000023242397347383112170000017444986439359515821_);" d="M42.1,128.5L21,116.3v-14l21.1,12.2
				V128.5z"/>
			
				<linearGradient id="SVGID_00000010299759197037807420000013132037035724032182_" gradientUnits="userSpaceOnUse" x1="87.2756" y1="763.4426" x2="9.0806" y2="722.2978" gradientTransform="matrix(1 0 0 1 0 -638.6797)">
				<stop  offset="1.112760e-02" style="stop-color:#D1D1E0"/>
				<stop  offset="0.8056" style="stop-color:#FFFFFF"/>
			</linearGradient>
			<path style="fill:url(#SVGID_00000010299759197037807420000013132037035724032182_);" d="M65.5,100.9l-21-12.1l-23.4,13.5
				l21.1,12.2L65.5,100.9z"/>
			
				<linearGradient id="SVGID_00000043447483937807159960000013737126158881977780_" gradientUnits="userSpaceOnUse" x1="72.4514" y1="791.6161" x2="-5.7436" y2="750.4711" gradientTransform="matrix(1 0 0 1 0 -638.6797)">
				<stop  offset="1.112760e-02" style="stop-color:#D1D1E0"/>
				<stop  offset="0.8056" style="stop-color:#FFFFFF"/>
			</linearGradient>
			<path style="fill:url(#SVGID_00000043447483937807159960000013737126158881977780_);" d="M42.1,128.5L21,116.3l-16.4,9.4
				l21.1,12.2L42.1,128.5z"/>
			<path class="st25" d="M32,43.6l0.2,0.7c1.1,2.9,2.8,4.9,5.1,5.9c-2.3,3.5-4.1,7.6-5.1,11.8L32,63l-0.2-0.7
				c-1.1-2.9-2.8-4.9-5.1-5.8c2.3-3.5,4.1-7.6,5.1-11.8L32,43.6z"/>
			
				<linearGradient id="SVGID_00000147909043510615160860000014435020163402105787_" gradientUnits="userSpaceOnUse" x1="13.0523" y1="678.1656" x2="16.2698" y2="678.1993" gradientTransform="matrix(1 0 0 1 0 -638.6797)">
				<stop  offset="1.112760e-02" style="stop-color:#D1D1E0"/>
				<stop  offset="0.4592" style="stop-color:#FFFFFF"/>
				<stop  offset="0.5782" style="stop-color:#FBFBFD"/>
				<stop  offset="0.6835" style="stop-color:#F1F1F5"/>
				<stop  offset="0.7832" style="stop-color:#DFDFE9"/>
				<stop  offset="0.8391" style="stop-color:#D1D1E0"/>
				<stop  offset="1" style="stop-color:#FAFAFC"/>
			</linearGradient>
			<path style="fill:url(#SVGID_00000147909043510615160860000014435020163402105787_);" d="M16.3,20h-3v38.1c0,0.2,0.1,0.5,0.5,0.7
				c0.6,0.3,1.6,0.3,2.2,0c0.3-0.2,0.5-0.5,0.5-0.7L16.3,20L16.3,20z"/>
			
				<linearGradient id="SVGID_00000064328037353389603430000015314081950937141892_" gradientUnits="userSpaceOnUse" x1="19.8319" y1="653.6111" x2="13.0591" y2="660.4333" gradientTransform="matrix(1 0 0 1 0 -638.6797)">
				<stop  offset="1.112760e-02" style="stop-color:#D1D1E0"/>
				<stop  offset="0.4592" style="stop-color:#FFFFFF"/>
				<stop  offset="0.5782" style="stop-color:#FBFBFD"/>
				<stop  offset="0.6835" style="stop-color:#F1F1F5"/>
				<stop  offset="0.7832" style="stop-color:#DFDFE9"/>
				<stop  offset="0.8391" style="stop-color:#D1D1E0"/>
				<stop  offset="1" style="stop-color:#FAFAFC"/>
			</linearGradient>
			<path style="fill:url(#SVGID_00000064328037353389603430000015314081950937141892_);" d="M14.8,20.9c0.9,0,1.6-0.4,1.6-0.9
				s-0.7-0.9-1.6-0.9c-0.9,0-1.6,0.4-1.6,0.9C13.3,20.5,14,20.9,14.8,20.9z"/>
			
				<linearGradient id="SVGID_00000012441951888423744940000000308159563325491885_" gradientUnits="userSpaceOnUse" x1="25.0368" y1="680.8422" x2="8.7744" y2="680.8422" gradientTransform="matrix(1 0 0 1 0 -638.6797)">
				<stop  offset="1.112760e-02" style="stop-color:#D1D1E0"/>
				<stop  offset="0.4592" style="stop-color:#FFFFFF"/>
				<stop  offset="0.5782" style="stop-color:#FBFBFD"/>
				<stop  offset="0.6835" style="stop-color:#F1F1F5"/>
				<stop  offset="0.7832" style="stop-color:#DFDFE9"/>
				<stop  offset="0.8391" style="stop-color:#D1D1E0"/>
				<stop  offset="1" style="stop-color:#FAFAFC"/>
			</linearGradient>
			<path style="fill:url(#SVGID_00000012441951888423744940000000308159563325491885_);" d="M10.9,30.1v20.3c0,1,0.6,2,1.9,2.7
				c2.6,1.5,6.8,1.5,9.4,0c1.3-0.8,1.9-1.7,1.9-2.7V30.1H10.9z"/>
			
				<linearGradient id="SVGID_00000176755333398931733520000017346645193398702777_" gradientUnits="userSpaceOnUse" x1="36.9262" y1="654.815" x2="-0.1183" y2="681.4448" gradientTransform="matrix(1 0 0 1 0 -638.6797)">
				<stop  offset="0" style="stop-color:#FFFFFF"/>
				<stop  offset="0.986" style="stop-color:#D1D1E0"/>
			</linearGradient>
			<path style="fill:url(#SVGID_00000176755333398931733520000017346645193398702777_);" d="M17.5,33.9c3.7,0,6.6-1.7,6.6-3.8
				s-3-3.8-6.6-3.8c-3.7,0-6.6,1.7-6.6,3.8S13.9,33.9,17.5,33.9z"/>
			<path class="st25" d="M132,15.1l0.4,1.6c1.7,6.6,4.4,12.9,8,18.6c-3.6,1.5-6.4,4.7-8,9.2l-0.4,1.1l-0.4-1.6
				c-1.7-6.6-4.4-12.9-8-18.6c3.6-1.5,6.4-4.7,8-9.2L132,15.1z"/>
			<path class="st25" d="M142.7,38l0.2,0.8c0.9,3.4,2.3,6.8,4.2,9.7c-1.9,0.8-3.3,2.4-4.2,4.8l-0.2,0.5l-0.2-0.8
				c-0.9-3.4-2.3-6.8-4.2-9.7c1.9-0.8,3.3-2.4,4.2-4.8L142.7,38z"/>
		</g>
	</g>
</g>
</svg>
